/* XPM */
static char *collect[] = {
/* columns rows colors chars-per-pixel */
"32 32 56 1 ",
"  c None",
". c #02060A",
"X c #040B11",
"o c #040B12",
"O c #040C12",
"+ c #050D14",
"@ c #050E15",
"# c #08161E",
"$ c #091720",
"% c #0A1821",
"& c #0A1822",
"* c #0D1A24",
"= c #0D1C25",
"- c #0E1F2A",
"; c #0F222E",
": c #10222C",
"> c #102430",
", c #112430",
"< c #152734",
"1 c #162C3A",
"2 c #172F3C",
"3 c #0B2A44",
"4 c #1A3240",
"5 c #1A3242",
"6 c #1B3646",
"7 c #12324B",
"8 c #203C4B",
"9 c #244050",
"0 c #254656",
"q c #2B495B",
"w c #294A5B",
"e c #1D4D6D",
"r c #184C73",
"t c #194C74",
"y c #1D5575",
"u c #1A5178",
"i c #3B5967",
"p c #3B5F72",
"a c #1F5B82",
"s c #1E5E8C",
"d c #2D688E",
"f c #2D77A1",
"g c #476D83",
"h c #3F86AB",
"j c #558CA7",
"k c #4293B5",
"l c #608EA3",
"z c #658EA2",
"x c #47A8C9",
"c c #78ACC0",
"v c #68B9D7",
"b c #A2C0CB",
"n c #BFE7F5",
"m c #C7F9FF",
"M c #E8F9FF",
"N c white",
/* pixels */
"                                ",
"                                ",
"                      *         ",
"                    **N*        ",
"                   *Nnb*        ",
"                  *Nnbz+        ",
"                 *Nnbzp+        ",
"                 +mbzp2*        ",
"               *+mnzp2N*        ",
"             *+nunbpv-bw+       ",
"            *Nnbubpv2Nl6+       ",
"            +mnp2i1k&bl,O       ",
"            +nbw#1k2Nb6+        ",
"           *Nbz:&f2&bl,.        ",
"           *nz:0X#bubw+         ",
"           +z:9k#bl2g6.         ",
"           +thx#nl2cw+          ",
"          *h2-#nbp#wy+          ",
"          +2bunbl3c8+           ",
"         *Mnl2bzw&g=+           ",
"         +Nbp-zw6&<y+           ",
"        *Nnp6+g;&g:e.           ",
"        *Nb1Xj5Xg$eO            ",
"        +b16Xg$X$e.             ",
"        +r6Xg5,Xa.              ",
"        +sX5;&e.O               ",
"        +&wd7aO                 ",
"        +y,++O                  ",
"         ++                     ",
"                                ",
"                                ",
"                                "
};
