/* XPM */
static char *PHsprite[] = {
/* columns rows colors chars-per-pixel */
"64 57 27 1 ",
"  c None",
". c black",
"X c #29598B",
"o c #16314C",
"O c #12273D",
"+ c #F3C598",
"@ c #E0A272",
"# c gray95",
"$ c #BE6F4C",
"% c gray23",
"& c #0B00EF",
"* c #0C00B5",
"= c white",
"- c #0900BC",
"; c gray65",
": c #070091",
"> c #162029",
", c LightGray",
"< c gray71",
"1 c #DBDB00",
"2 c yellow",
"3 c gray53",
"4 c #354658",
"5 c #4A627A",
"6 c #491D00",
"7 c #722D00",
"8 c #A54200",
/* pixels */
"                                                                ",
"                                                                ",
"                                                                ",
"                                                                ",
"                                                                ",
"                                                                ",
"                                                                ",
"                                                                ",
"                            ..     .                            ",
"                     .......XX.... ..                           ",
"                      .oXXXO.OXXXX..X..                         ",
"                       .oXXXX..OXXooOo.                         ",
"                          oXXXXXXXXooXX.                        ",
"                       ...OoXXXXXXXXXXX.                        ",
"                      .OOOOoXXXXXXXXXXX.                        ",
"                     .OOOOoXXXXXXXXXXXX..                       ",
"                      .OOoXXXXXXXXXXXoooO.                      ",
"                       ....OOXXXXXXXXoOOO..                     ",
"                      .ooooooXXXooXXXXOo.                       ",
"                    ..oooOOOoXXoo+ooXXOo.                       ",
"                      .oooOOoXoo+++oXXOO.                       ",
"                       .OooOooo@+++oXOOO.                       ",
"                       .ooo.oo.@@++o.O...                       ",
"                      ..oOO..o##..$.... .                       ",
"                    ....OO..$.##%@++@.                          ",
"                       .O...$.@++++++.                          ",
"                       .O..&..$@++++.                           ",
"                       .O...*...$@@.&.                          ",
"                       .O.===**....==.                          ",
"                      .OO..===**.**==.                          ",
"                      .O.-*===;**.*;=.                          ",
"                     ....:*.=====*===..     .                   ",
"                   ...>.-...*==;;*;=..&.   .=.                  ",
"                  .=,.>>...;;***;;=;..&&...,..                  ",
"                  ...<.>.  .;;*12222.--.>.,..=.                 ",
"                 .<<,=,..   .;**111*.:.>.=,....                 ",
"                 .<.<,<.    .33*****.....,...                   ",
"                 .,,...=.   .3333333.   ....<.                  ",
"                  ..,=..   ..........     .<..                  ",
"                    ..    .>44>>45>>>.     .                    ",
"                         .>4554>>4>4>.                          ",
"                         .455554.>444.                          ",
"                        .>45555..>444.                          ",
"                        .>45554..>444.                          ",
"                       .>>4455....>4>.                          ",
"                       .4>444>.....>>.                          ",
"                      .55444>...>>44..                          ",
"                      .45554>. ..444..                          ",
"                      ...45..  ......                           ",
"                      .66...   .6667.                           ",
"                     .67666.   .66778.                          ",
"                     .7876.     .77888.                         ",
"                     .8887.     .......                         ",
"                     ......                                     ",
"                                                                ",
"                                                                ",
"                                                                "
};
